<?xml version="1.0" encoding="utf-8"?>
<!-- Generator: Adobe Illustrator 22.0.1, SVG Export Plug-In . SVG Version: 6.00 Build 0)  -->
<svg version="1.1" id="Layer_1" xmlns="http://www.w3.org/2000/svg" xmlns:xlink="http://www.w3.org/1999/xlink" x="0px" y="0px"
	 viewBox="0 0 65 65" style="enable-background:new 0 0 65 65;" xml:space="preserve">
<style type="text/css">
	.st0{fill:#97735E;}
	.st1{fill:#FFFFFF;}
</style>
<rect class="st0" width="65.1" height="65.1"/>
<path class="st1" d="M17.2,44.5l-0.3-0.2l-1.7,3c-0.2,0.4-0.1,0.9,0.3,1.1c0.1,0.1,0.3,0.1,0.4,0.1c0.3,0,0.6-0.2,0.7-0.4l1.5-2.8
	l-0.2-0.2C17.8,45,17.5,44.7,17.2,44.5z M38.8,44.4l-0.3,0.2c-0.3,0.2-0.6,0.4-0.8,0.6l-0.2,0.2l1.5,2.7c0.2,0.4,0.7,0.5,1.1,0.3
	c0.2-0.1,0.3-0.3,0.4-0.5c0.1-0.2,0-0.4-0.1-0.6L38.8,44.4z M40.8,34.2c-1.6,7.1-8.6,11.7-15.8,10.1s-11.7-8.6-10.1-15.8
	c1.5-7.1,8.6-11.7,15.8-10.1c5,1.1,8.9,5,10.1,10l0.1,0.2h1.5v-0.3c-1.7-8-9.6-13.2-17.6-11.5s-13.2,9.6-11.5,17.6
	s9.6,13.2,17.6,11.5c5.8-1.2,10.3-5.8,11.5-11.6l0.1-0.3h-1.6L40.8,34.2z M35,28.5l0.1,0.2h1.7l-0.1-0.4c-1.7-4.8-7-7.4-11.9-5.7
	c-4.8,1.7-7.4,7-5.7,11.9c1.7,4.8,7,7.4,11.9,5.7c2.7-0.9,4.8-3.1,5.7-5.8l0.1-0.4h-1.7L35,34.2c-1.6,3.9-6,5.9-10,4.3
	s-5.9-6-4.3-10c1.6-3.9,6-5.9,10-4.3C32.6,25,34.2,26.5,35,28.5z M52.2,28c0-0.2-0.1-0.4-0.3-0.6c-0.1-0.1-0.3-0.2-0.5-0.2
	s-0.5,0.1-0.6,0.3l-2.4,2.9l-0.1,0.1h-2.7l1.6-1.9c0.1-0.2,0.2-0.4,0.2-0.6s-0.1-0.4-0.3-0.6c-0.3-0.3-0.8-0.2-1.1,0.1l0,0l-2.4,2.9
	l-0.1,0.1H28.9c-0.4,0-0.8,0.4-0.8,0.8c0,0.4,0.4,0.8,0.8,0.8h14.5l0.1,0.1c0,0.1,0.1,0.1,0.1,0.2l2.5,2.9c0.2,0.2,0.4,0.3,0.6,0.3
	c0.2,0,0.4-0.1,0.5-0.2c0.3-0.3,0.4-0.8,0.1-1.1l0,0l-1.9-2.2h2.8v0.1c0,0.1,0.1,0.1,0.1,0.2l2.4,2.9c0.2,0.2,0.4,0.3,0.6,0.3
	c0.2,0,0.4-0.1,0.5-0.2c0.2-0.1,0.3-0.3,0.3-0.6c0-0.2-0.1-0.4-0.2-0.6l-2.4-2.8l2.4-2.8C52.1,28.4,52.2,28.2,52.2,28z M28.9,28.6h2
	l-0.7-0.5c-0.6-0.5-1.4-0.7-2.2-0.7c-2.2,0-3.9,1.8-3.9,3.9c0,2.2,1.7,3.9,3.9,3.9c0.8,0,1.7-0.3,2.3-0.8l0.7-0.5h-2.1
	c-0.7,0-1.4-0.3-1.9-0.8c-0.4-0.3-0.6-0.7-0.7-1.3c0-0.2-0.1-0.4-0.1-0.5s0-0.3,0-0.4C26.4,29.6,27.5,28.6,28.9,28.6z"/>
</svg>
