<?xml version="1.0" encoding="utf-8"?>
<!-- Generator: Adobe Illustrator 22.0.1, SVG Export Plug-In . SVG Version: 6.00 Build 0)  -->
<svg version="1.1" id="Layer_1" xmlns="http://www.w3.org/2000/svg" xmlns:xlink="http://www.w3.org/1999/xlink" x="0px" y="0px"
	 viewBox="0 0 65 65" style="enable-background:new 0 0 65 65;" xml:space="preserve">
<style type="text/css">
	.st0{fill:#97735E;}
	.st1{fill:#FFFFFF;}
</style>
<rect class="st0" width="65.1" height="65.1"/>
<path class="st1" d="M34.9,42.4v-2.3h-1.5v2.3l-5,4.1c-0.2,0.1-0.2,0.3-0.3,0.5c0,0.2,0,0.4,0.2,0.6c0.1,0.2,0.4,0.3,0.6,0.3
	s0.4-0.1,0.5-0.2l4-3.3v2.8c0,0.4,0.3,0.8,0.8,0.8s0.8-0.3,0.8-0.8v-2.9l4.1,3.3c0.1,0.1,0.3,0.2,0.5,0.2s0.4-0.1,0.6-0.3
	c0.3-0.3,0.2-0.8-0.1-1.1l0,0L34.9,42.4z M48.9,17.8H25.8l0.2,0.4c0.2,0.3,0.3,0.6,0.4,0.9l0.1,0.2h19.9v15.4c0,1.1-0.9,2-2,2H26.9
	v-6.4c0-1.2-0.6-2.3-1.6-2.9c-0.6-0.4-1.3-0.6-2-0.6h-5.1c-0.7,0-1.4,0.2-2,0.6c-0.4,0.2-0.7,0.5-0.9,0.9c-0.4,0.6-0.6,1.3-0.6,2
	v6.6c0,0.7,0.2,1.4,0.6,2c0.2,0.4,0.6,0.7,0.9,0.9c0.3,0.2,0.6,0.3,0.9,0.4h0.1v7.6h1.5v-9h-0.6c-0.3,0-0.6-0.1-0.9-0.2
	c-0.7-0.3-1.1-1-1.1-1.8v-6.5c0-1.1,0.9-2,2.1-2l0,0h5.1c1.1,0,2,0.9,2.1,2l0,0v6.6c0,0.6-0.3,1.1-0.7,1.5c-0.1,0.1-0.3,0.2-0.5,0.3
	c-0.3,0.1-0.6,0.2-0.9,0.2h-0.6v9h1.5v-7.6h0.1c0.3-0.1,0.7-0.3,0.9-0.4c0.4-0.3,0.7-0.6,0.9-0.9c0.1-0.2,0.3-0.4,0.4-0.7v-0.1h17.7
	c1.9,0,3.5-1.6,3.5-3.5V19.3h0.9c0.4,0,0.8-0.3,0.8-0.8S49.3,17.8,48.9,17.8z M20.8,25c2.2,0,4-1.8,3.9-4c0-2.2-1.8-4-4-3.9
	c-2.2,0-3.9,1.8-3.9,4C16.8,23.2,18.5,25,20.8,25z M18.3,21c0-1.4,1.1-2.5,2.5-2.5c1.4,0,2.5,1.1,2.5,2.5s-1.1,2.5-2.5,2.5l0,0
	C19.4,23.5,18.3,22.4,18.3,21L18.3,21z"/>
</svg>
