<?xml version="1.0" encoding="utf-8"?>
<!-- Generator: Adobe Illustrator 22.0.1, SVG Export Plug-In . SVG Version: 6.00 Build 0)  -->
<svg version="1.1" id="Layer_1" xmlns="http://www.w3.org/2000/svg" xmlns:xlink="http://www.w3.org/1999/xlink" x="0px" y="0px"
	 viewBox="0 0 65 65" style="enable-background:new 0 0 65 65;" xml:space="preserve">
<style type="text/css">
	.st0{fill:#97735E;}
	.st1{fill:#FFFFFF;}
</style>
<rect class="st0" width="65.1" height="65.1"/>
<path class="st1" d="M33.1,20.2h-0.2v-3.3h-1.7v3.3H31c-8.2,0.6-14.5,7.7-13.9,16c0.6,8.2,7.7,14.5,16,13.9s14.5-7.7,13.9-16
	C46.5,26.7,40.5,20.7,33.1,20.2z M40.5,42c-0.3-0.3-0.9-0.3-1.2,0s-0.3,0.8,0,1.2l0,0l1.5,1.5l-0.1,0.1c-2.1,1.8-4.8,2.9-7.6,3.1
	h-0.2v-2.2c0-0.5-0.4-0.8-0.9-0.8s-0.8,0.4-0.8,0.8V48H31c-2.8-0.2-5.5-1.3-7.6-3.1l-0.2-0.1l1.6-1.6c0.3-0.3,0.3-0.8,0-1.2l0,0
	c-0.3-0.3-0.9-0.3-1.2,0L22,43.6l-0.1-0.2c-1.8-2.1-3-4.7-3.2-7.5v-0.2H21c0.5,0,0.8-0.4,0.9-0.8c0-0.5-0.4-0.8-0.8-0.9l0,0h-2.3
	v-0.2c0.2-2.8,1.3-5.4,3.2-7.5l0.1-0.1l1.6,1.6c0.3,0.3,0.9,0.3,1.2,0c0.3-0.3,0.3-0.8,0-1.2l0,0L23.3,25l0.2-0.1
	c5-4.2,12.3-4.1,17.2,0.1l0.2,0.1l-1.5,1.5c-0.3,0.3-0.3,0.8,0,1.2l0,0c0.3,0.3,0.9,0.3,1.2,0l1.5-1.5l0.1,0.1
	c1.8,2.1,2.9,4.7,3.1,7.4V34h-2.1c-0.5,0-0.8,0.4-0.9,0.8c0,0.5,0.4,0.8,0.8,0.9l0,0h2.2v0.2c-0.2,2.7-1.3,5.3-3.1,7.4L42,43.5
	L40.5,42z M28.3,15.9c0-0.8,0.7-1.5,1.5-1.5h4.6c0.8,0,1.5,0.7,1.5,1.5V18h1.7v-2.1c0-1.8-1.5-3.2-3.2-3.2h-4.6
	c-1.8,0-3.2,1.4-3.2,3.2V18h1.7C28.3,18,28.3,15.9,28.3,15.9z M45.1,23.4l0.2,0.2l1.3-1.1l-0.2-0.2c-1-1.1-2.2-2.1-3.5-3l-0.3-0.2
	l-0.9,1.4l0.2,0.2C43.2,21.5,44.2,22.4,45.1,23.4L45.1,23.4z M33,31.5L33,31.5l-0.1-6.3c0-0.5-0.4-0.9-0.9-0.8
	c-0.5,0-0.8,0.4-0.8,0.8v6.3h-0.1c-1.9,0.5-3,2.4-2.5,4.3c0.3,1.2,1.3,2.2,2.5,2.5h0.1V40c0,0.5,0.4,0.9,0.9,0.8
	c0.5,0,0.8-0.4,0.8-0.8v-1.7H33c1.9-0.5,3-2.4,2.5-4.3C35.2,32.8,34.2,31.9,33,31.5L33,31.5z M33.9,35c0,0.6-0.3,1.1-0.8,1.5
	c-0.7,0.5-1.6,0.5-2.3,0C30.3,36.2,30,35.6,30,35s0.3-1.1,0.8-1.5c0.3-0.2,0.7-0.4,1.1-0.4c0.4,0,0.8,0.1,1.1,0.4
	C33.6,33.8,33.9,34.4,33.9,35L33.9,35z"/>
</svg>
