<svg id="Layer_1" data-name="Layer 1" xmlns="http://www.w3.org/2000/svg" viewBox="0 0 65 65"><defs><style>.cls-1{fill:#97735e;}.cls-2{fill:#fff;}</style></defs><title>accurate1-icon</title><rect class="cls-1" width="65" height="65"/><path class="cls-2" d="M19.8,45.7l-.3-.2-1.7,3a.8.8,0,0,0,.3,1.1.6.6,0,0,0,.4.1.84.84,0,0,0,.7-.4l1.5-2.8-.2-.2A5.07,5.07,0,0,0,19.8,45.7Zm21.6-.1-.3.2a5.55,5.55,0,0,0-.8.6l-.2.2,1.5,2.7a.8.8,0,0,0,1.1.3,1,1,0,0,0,.4-.5.66.66,0,0,0-.1-.6Zm2-10.2a13.19,13.19,0,1,1,0-5.8l.1.2H45v-.3a14.93,14.93,0,1,0,0,6l.1-.3H43.5Zm-5.8-5.7.1.2h1.7l-.1-.4a9.33,9.33,0,1,0-5.7,11.9,9.14,9.14,0,0,0,5.7-5.8l.1-.4H37.7l-.1.2a7.71,7.71,0,0,1-10,4.3,7.63,7.63,0,0,1-4.3-10,7.71,7.71,0,0,1,10-4.3A7.88,7.88,0,0,1,37.6,29.7Zm17.2-.5a.86.86,0,0,0-.3-.6.76.76,0,0,0-.5-.2.71.71,0,0,0-.6.3L51,31.6l-.1.1H48.2l1.6-1.9a1.42,1.42,0,0,0,.2-.6.86.86,0,0,0-.3-.6.79.79,0,0,0-1.1.1h0l-2.4,2.9-.1.1H31.5a.8.8,0,1,0,0,1.6H46l.1.1c0,.1.1.1.1.2l2.5,2.9a.86.86,0,0,0,.6.3.76.76,0,0,0,.5-.2.79.79,0,0,0,.1-1.1h0L48,33.3h2.8v.1c0,.1.1.1.1.2l2.4,2.9a.86.86,0,0,0,.6.3.76.76,0,0,0,.5-.2.6.6,0,0,0,.3-.6,1.42,1.42,0,0,0-.2-.6l-2.4-2.8,2.4-2.8A.86.86,0,0,0,54.8,29.2Zm-23.3.6h2l-.7-.5a3.41,3.41,0,0,0-2.2-.7,3.9,3.9,0,0,0-3.9,3.9,3.84,3.84,0,0,0,3.9,3.9,3.78,3.78,0,0,0,2.3-.8l.7-.5H31.5a2.73,2.73,0,0,1-1.9-.8,1.86,1.86,0,0,1-.7-1.3,4.33,4.33,0,0,0-.1-.5v-.4A2.7,2.7,0,0,1,31.5,29.8Z"/></svg>