<?xml version="1.0" encoding="utf-8"?>
<!-- Generator: Adobe Illustrator 22.0.1, SVG Export Plug-In . SVG Version: 6.00 Build 0)  -->
<svg version="1.1" id="Layer_1" xmlns="http://www.w3.org/2000/svg" xmlns:xlink="http://www.w3.org/1999/xlink" x="0px" y="0px"
	 viewBox="0 0 65 65" style="enable-background:new 0 0 65 65;" xml:space="preserve">
<style type="text/css">
	.st0{fill:#97735E;}
	.st1{fill:#FFFFFF;}
</style>
<rect class="st0" width="65.1" height="65.1"/>
<path class="st1" d="M20.5,44.4l-0.3-0.2l-1.7,3c-0.2,0.4-0.1,0.9,0.3,1.1c0.1,0.1,0.3,0.1,0.4,0.1c0.3,0,0.6-0.2,0.7-0.4l1.5-2.8
	L21.2,45C21.1,44.9,20.8,44.6,20.5,44.4z M42.1,44.3l-0.3,0.2c-0.3,0.2-0.6,0.4-0.8,0.6l-0.2,0.2l1.5,2.7c0.2,0.4,0.7,0.5,1.1,0.3
	c0.2-0.1,0.3-0.3,0.4-0.5c0.1-0.2,0-0.4-0.1-0.6L42.1,44.3z M44.1,34.1c-1.6,7.1-8.6,11.7-15.8,10.1s-11.7-8.6-10.1-15.8
	c1.5-7.1,8.6-11.7,15.8-10.1c5,1.1,8.9,5,10.1,10l0.1,0.2h1.5v-0.3c-1.7-8-9.6-13.2-17.6-11.5s-13.2,9.6-11.5,17.6
	s9.6,13.2,17.6,11.5C40,44.6,44.5,40,45.7,34.2l0.1-0.3h-1.6L44.1,34.1z M38.3,28.4l0.1,0.2h1.7L40,28.2c-1.7-4.8-7-7.4-11.9-5.7
	c-4.8,1.7-7.4,7-5.7,11.9c1.7,4.8,7,7.4,11.9,5.7c2.7-0.9,4.8-3.1,5.7-5.8l0.1-0.4h-1.7l-0.1,0.2c-1.6,3.9-6,5.9-10,4.3
	s-5.9-6-4.3-10c1.6-3.9,6-5.9,10-4.3C35.9,24.9,37.5,26.4,38.3,28.4z M55.5,27.9c0-0.2-0.1-0.4-0.3-0.6c-0.1-0.1-0.3-0.2-0.5-0.2
	s-0.5,0.1-0.6,0.3l-2.4,2.9l-0.1,0.1h-2.7l1.6-1.9c0.1-0.2,0.2-0.4,0.2-0.6s-0.1-0.4-0.3-0.6c-0.3-0.3-0.8-0.2-1.1,0.1l0,0l-2.4,2.9
	l-0.1,0.1H32.2c-0.4,0-0.8,0.4-0.8,0.8c0,0.4,0.4,0.8,0.8,0.8h14.5l0.1,0.1c0,0.1,0.1,0.1,0.1,0.2l2.5,2.9c0.2,0.2,0.4,0.3,0.6,0.3
	c0.2,0,0.4-0.1,0.5-0.2c0.3-0.3,0.4-0.8,0.1-1.1l0,0L48.7,32h2.8v0.1c0,0.1,0.1,0.1,0.1,0.2l2.4,2.9c0.2,0.2,0.4,0.3,0.6,0.3
	c0.2,0,0.4-0.1,0.5-0.2c0.2-0.1,0.3-0.3,0.3-0.6c0-0.2-0.1-0.4-0.2-0.6l-2.4-2.8l2.4-2.8C55.4,28.3,55.5,28.1,55.5,27.9z M32.2,28.5
	h2L33.5,28c-0.6-0.5-1.4-0.7-2.2-0.7c-2.2,0-3.9,1.8-3.9,3.9c0,2.2,1.7,3.9,3.9,3.9c0.8,0,1.7-0.3,2.3-0.8l0.7-0.5h-2.1
	c-0.7,0-1.4-0.3-1.9-0.8c-0.4-0.3-0.6-0.7-0.7-1.3c0-0.2-0.1-0.4-0.1-0.5s0-0.3,0-0.4C29.7,29.5,30.8,28.5,32.2,28.5z"/>
</svg>
