<svg xmlns="http://www.w3.org/2000/svg" viewBox="0 0 65px 65px"><style type="text/css">  
	.st0{fill:#97735E;}
	.st1{fill:#FFFFFF;}
</style><rect class="st0" width="65px" height="65px"/><path class="st1" d="M19.8 45.7l-0.3-0.2 -1.7 3c-0.2 0.4-0.1 0.9 0.3 1.1 0.1 0.1 0.3 0.1 0.4 0.1 0.3 0 0.6-0.2 0.7-0.4l1.5-2.8 -0.2-0.2C20.4 46.2 20.1 45.9 19.8 45.7zM41.4 45.6l-0.3 0.2c-0.3 0.2-0.6 0.4-0.8 0.6l-0.2 0.2 1.5 2.7c0.2 0.4 0.7 0.5 1.1 0.3 0.2-0.1 0.3-0.3 0.4-0.5 0.1-0.2 0-0.4-0.1-0.6L41.4 45.6zM43.4 35.4c-1.6 7.1-8.6 11.7-15.8 10.1s-11.7-8.6-10.1-15.8C19 22.6 26.1 18 33.3 19.6c5 1.1 8.9 5 10.1 10l0.1 0.2H45L45 29.5c-1.7-8-9.6-13.2-17.6-11.5 -8 1.7-13.2 9.6-11.5 17.6s9.6 13.2 17.6 11.5c5.8-1.2 10.3-5.8 11.5-11.6l0.1-0.3h-1.6L43.4 35.4zM37.6 29.7l0.1 0.2h1.7l-0.1-0.4c-1.7-4.8-7-7.4-11.9-5.7 -4.8 1.7-7.4 7-5.7 11.9 1.7 4.8 7 7.4 11.9 5.7 2.7-0.9 4.8-3.1 5.7-5.8l0.1-0.4h-1.7l-0.1 0.2c-1.6 3.9-6 5.9-10 4.3s-5.9-6-4.3-10c1.6-3.9 6-5.9 10-4.3C35.2 26.2 36.8 27.7 37.6 29.7zM54.8 29.2c0-0.2-0.1-0.4-0.3-0.6 -0.1-0.1-0.3-0.2-0.5-0.2 -0.2 0-0.5 0.1-0.6 0.3L51 31.6l-0.1 0.1h-2.7l1.6-1.9c0.1-0.2 0.2-0.4 0.2-0.6 0-0.2-0.1-0.4-0.3-0.6 -0.3-0.3-0.8-0.2-1.1 0.1 0 0 0 0 0 0l-2.4 2.9 -0.1 0.1H31.5c-0.4 0-0.8 0.4-0.8 0.8 0 0.4 0.4 0.8 0.8 0.8h14.5l0.1 0.1c0 0.1 0.1 0.1 0.1 0.2l2.5 2.9c0.2 0.2 0.4 0.3 0.6 0.3 0.2 0 0.4-0.1 0.5-0.2 0.3-0.3 0.4-0.8 0.1-1.1 0 0 0 0 0 0L48 33.3h2.8l0 0.1c0 0.1 0.1 0.1 0.1 0.2l2.4 2.9c0.2 0.2 0.4 0.3 0.6 0.3 0.2 0 0.4-0.1 0.5-0.2 0.2-0.1 0.3-0.3 0.3-0.6 0-0.2-0.1-0.4-0.2-0.6l-2.4-2.8 2.4-2.8C54.7 29.6 54.8 29.4 54.8 29.2zM31.5 29.8h2l-0.7-0.5c-0.6-0.5-1.4-0.7-2.2-0.7 -2.2 0-3.9 1.8-3.9 3.9 0 2.2 1.7 3.9 3.9 3.9 0.8 0 1.7-0.3 2.3-0.8l0.7-0.5h-2.1c-0.7 0-1.4-0.3-1.9-0.8C29.2 34 29 33.6 28.9 33c0-0.2-0.1-0.4-0.1-0.5 0-0.1 0-0.3 0-0.4C29 30.8 30.1 29.8 31.5 29.8z"/></svg>