<svg xmlns="http://www.w3.org/2000/svg" viewBox="0 0 188.5 68"><style type="text/css">  
	.st0{fill:none;stroke:#97735E;stroke-width:2;}
	.st1{fill:none;stroke:#97735E;}
	.st2{fill:none;stroke:#996666;}
	.st3{fill:#757371;}
</style><circle class="st0" cx="93.8" cy="34" r="33"/><rect x="0.5" y="34" class="st1" width="45" height="1"/><rect x="143" y="34" class="st2" width="45" height="1"/><path class="st3" d="M81.7 46.5l-0.3-0.2 -1.7 3c-0.2 0.4-0.1 0.9 0.3 1.1 0.1 0.1 0.3 0.1 0.4 0.1 0.3 0 0.6-0.2 0.7-0.4l1.5-2.8 -0.2-0.1C82.2 47 81.9 46.8 81.7 46.5zM103.2 46.4l-0.3 0.2c-0.3 0.2-0.6 0.4-0.8 0.6l-0.2 0.1 1.5 2.7c0.1 0.3 0.4 0.4 0.7 0.4 0.1 0 0.3 0 0.4-0.1 0.2-0.1 0.3-0.3 0.4-0.5 0.1-0.2 0-0.4-0.1-0.6L103.2 46.4zM105.2 36.2c-1.6 7.1-8.6 11.7-15.8 10.1s-11.7-8.6-10.1-15.8c1.6-7.1 8.6-11.7 15.8-10.1 5 1.1 8.9 5 10.1 10l0.1 0.2h1.6l-0.1-0.3c-1.7-8-9.6-13.2-17.6-11.5 -8 1.7-13.2 9.6-11.5 17.6 1.7 8 9.6 13.2 17.6 11.5 5.8-1.2 10.3-5.8 11.5-11.6l0.1-0.3h-1.6L105.2 36.2zM99.4 30.5l0.1 0.2h1.7l-0.1-0.4c-1.7-4.8-7-7.4-11.9-5.7 -4.8 1.7-7.4 7-5.7 11.9 1.7 4.8 7 7.4 11.9 5.7 2.7-0.9 4.8-3.1 5.7-5.8l0.1-0.4h-1.7l-0.1 0.2c-1.6 3.9-6 5.9-10 4.3 -3.9-1.6-5.9-6-4.3-10 1.6-3.9 6-5.9 10-4.3C97.1 27 98.6 28.5 99.4 30.5L99.4 30.5zM116.6 30c0-0.2-0.1-0.4-0.3-0.6 -0.1-0.1-0.3-0.2-0.5-0.2 -0.2 0-0.5 0.1-0.6 0.3l-2.3 2.8 -0.1 0.1H110l1.6-1.9c0.1-0.2 0.2-0.4 0.2-0.6 0-0.2-0.1-0.4-0.3-0.6 -0.1-0.1-0.3-0.2-0.5-0.2 -0.2 0-0.5 0.1-0.6 0.3l-2.4 2.9 -0.1 0.1H93.3c-0.4 0-0.8 0.4-0.8 0.8 0 0.4 0.4 0.8 0.8 0.8h14.5l0.1 0.1c0 0.1 0.1 0.1 0.1 0.2l2.5 2.9c0.2 0.2 0.4 0.3 0.6 0.3 0.2 0 0.4-0.1 0.5-0.2 0.3-0.3 0.4-0.8 0.1-1.1 0 0 0 0 0 0l-1.8-2.1h2.8l0 0.1c0 0.1 0.1 0.1 0.1 0.2l2.4 2.9c0.2 0.2 0.4 0.3 0.6 0.3 0.2 0 0.4-0.1 0.5-0.2 0.3-0.3 0.4-0.8 0.1-1.1 0 0 0 0 0 0l-2.4-2.8 2.4-2.9C116.6 30.4 116.6 30.2 116.6 30L116.6 30zM93.3 30.6h2l-0.7-0.5c-0.6-0.5-1.4-0.7-2.2-0.7 -2.2 0-3.9 1.8-3.9 3.9s1.8 3.9 3.9 3.9c0.8 0 1.7-0.3 2.3-0.8l0.7-0.5h-2.1c-1.3 0-2.3-0.9-2.6-2.1 0-0.2-0.1-0.4-0.1-0.5 0-0.1 0-0.3 0-0.4C90.9 31.6 92 30.7 93.3 30.6L93.3 30.6z"/></svg>