<svg xmlns="http://www.w3.org/2000/svg" viewBox="0 0 52.5 52.5"><style type="text/css">  
	.st0{fill:#97735E;}
	.st1{fill:none;stroke:#97735E;stroke-miterlimit:10;}
</style><path class="st0" d="M26.5 27c-1.1 0-2.1-0.4-2.8-1.1 -1.5-1.4-1.6-3.8-0.1-5.3 0-0.1 0.1-0.1 0.1-0.1 1.6-1.5 4.1-1.5 5.7 0 1.5 1.4 1.6 3.8 0.1 5.3 0 0.1-0.1 0.1-0.1 0.1C28.6 26.6 27.6 27 26.5 27zM32.2 17.7c-3.2-3-8.1-3-11.3 0 -1.5 1.4-2.4 3.4-2.3 5.4 0 0.9 0.1 1.8 0.5 2.7l5.7 11.6c0.2 0.3 0.4 0.6 0.7 0.8 0.3 0.2 0.7 0.3 1.1 0.3 0.4 0 0.7-0.1 1.1-0.3 0.3-0.2 0.6-0.4 0.8-0.8L34 25.8c0.4-0.8 0.6-1.8 0.5-2.7C34.5 21.1 33.7 19.1 32.2 17.7z"/><circle class="st1" cx="26.3" cy="26.3" r="25.8"/></svg>