<svg xmlns="http://www.w3.org/2000/svg" viewBox="0 0 188.5 68"><style type="text/css">  
	.st0{fill:none;stroke:#97735E;stroke-width:2;}
	.st1{fill:none;stroke:#97735E;}
	.st2{fill:none;stroke:#996666;}
	.st3{fill:#757371;}
</style><circle class="st0" cx="93.8" cy="34" r="33"/><rect x="0.5" y="34" class="st1" width="45" height="1"/><rect x="143" y="34" class="st2" width="45" height="1"/><path class="st3" d="M83.3 23.6c0 0.6 0.5 1.1 1.1 1.1 0.6 0 1.1-0.5 1.1-1.1 0-0.6-0.5-1.1-1.1-1.1 0 0 0 0 0 0C83.8 22.5 83.3 23 83.3 23.6 83.3 23.6 83.3 23.6 83.3 23.6zM87.8 23.6c0 0.6 0.5 1.1 1.1 1.1 0.6 0 1.1-0.5 1.1-1.1 0-0.6-0.5-1.1-1.1-1.1C88.3 22.5 87.8 23 87.8 23.6 87.8 23.6 87.8 23.6 87.8 23.6zM83.3 33.2c0 0.6 0.5 1.1 1.1 1.1 0.6 0 1.1-0.5 1.1-1.1 0-0.6-0.5-1.1-1.1-1.1 0 0 0 0 0 0C83.8 32.1 83.3 32.6 83.3 33.2 83.3 33.2 83.3 33.2 83.3 33.2zM87.8 33.2c0 0.6 0.5 1.1 1.1 1.1 0.6 0 1.1-0.5 1.1-1.1 0-0.6-0.5-1.1-1.1-1.1C88.3 32.1 87.8 32.6 87.8 33.2 87.8 33.2 87.8 33.2 87.8 33.2zM83.3 42.9c0 0.6 0.5 1.1 1.1 1.1 0.6 0 1.1-0.5 1.1-1.1 0-0.6-0.5-1.1-1.1-1.1C83.8 41.8 83.3 42.3 83.3 42.9 83.3 42.9 83.3 42.9 83.3 42.9zM87.8 42.9c0 0.6 0.5 1.1 1.1 1.1 0.6 0 1.1-0.5 1.1-1.1 0-0.6-0.5-1.1-1.1-1.1C88.3 41.8 87.8 42.3 87.8 42.9 87.8 42.9 87.8 42.9 87.8 42.9zM82.4 48.6h10.3l0.2-1.7H82.4c-1.2 0-2.2-1-2.2-2.2v-5.8h15.2l1-1.7H80.2v-8h21l1-1.7h-22v-5.8c0-1.2 1-2.2 2.2-2.2h19.7c1.2 0 2.2 1 2.2 2.2v4.2l1.7 1v-5.3c0-2.1-1.7-3.8-3.8-3.9H82.4c-2.1 0-3.8 1.7-3.8 3.9v22.9C78.5 46.8 80.3 48.6 82.4 48.6L82.4 48.6zM95.9 42.8c-0.1 0.1-0.1 0.2-0.1 0.3l-0.9 7.9c0 0.3 0.1 0.6 0.4 0.8 0.3 0.2 0.6 0.2 0.9 0l6.6-4.2c0.1-0.1 0.2-0.2 0.3-0.3l6.3-10.4 -1.4-0.9 -5.2 8.7 -4.4-2.6 6.6-11 5.8 3.5 0.9-1.4 -7.2-4.4L95.9 42.8zM97 47.9l0.5-4.3 4.4 2.7 -3.7 2.4L97 47.9z"/></svg>