<svg xmlns="http://www.w3.org/2000/svg" viewBox="0 0 188.5 68"><style type="text/css">  
	.st0{fill:none;stroke:#97735E;stroke-width:2;}
	.st1{fill:none;stroke:#97735E;}
	.st2{fill:none;stroke:#996666;}
	.st3{fill:#757371;}
</style><circle class="st0" cx="93.8" cy="34" r="33"/><rect x="0.5" y="34" class="st1" width="45" height="1"/><rect x="143" y="34" class="st2" width="45" height="1"/><path class="st3" d="M99.7 47.4H86.5c-0.4 0-0.8 0.4-0.8 0.8S86 49 86.5 49c0 0 0 0 0 0h13.2c0.4 0 0.8-0.4 0.8-0.8S100.1 47.4 99.7 47.4C99.7 47.4 99.7 47.4 99.7 47.4zM103 25.9c-0.4-0.2-0.9-0.1-1.1 0.3l-5.2 8.7 -2.6-2.2c-0.3-0.3-0.8-0.2-1.1 0l-3 3.1 -2.5-3.5c-0.2-0.2-0.4-0.4-0.7-0.4l0 0c-0.3 0-0.5 0.2-0.7 0.4L82 39c-0.1 0.2-0.2 0.4-0.1 0.6 0.1 0.2 0.2 0.4 0.4 0.5 0.1 0.1 0.3 0.1 0.4 0.1 0.3 0 0.6-0.1 0.7-0.4l3.4-5.5 2.3 3.3c0.2 0.2 0.4 0.3 0.7 0.4 0.2 0 0.4-0.1 0.6-0.3l3.2-3.2 2.8 2.4c0.2 0.2 0.4 0.2 0.7 0.2 0.2 0 0.4-0.2 0.6-0.4l5.7-9.5c0.1-0.2 0.1-0.4 0.1-0.6C103.3 26.2 103.2 26 103 25.9L103 25.9zM101.7 43.3l-0.1-0.1h-22c-1.2 0-2.1-0.9-2.2-2.1V24.7c0-1.2 1-2.1 2.2-2.1h26.9c1.2 0 2.1 0.9 2.2 2.1v5.7l0.2 0c0.4 0 0.7 0.1 1 0.2l0.4 0.1v-6.1c0-2.1-1.7-3.8-3.8-3.7H79.6c-2.1 0-3.8 1.7-3.8 3.7v16.4c0 2.1 1.7 3.7 3.8 3.7h23.8l-0.6-0.5C102.4 44 102.1 43.7 101.7 43.3L101.7 43.3zM115.6 44.6l-3-3 0.1-0.1c0.7-1 1.1-2.1 1.1-3.3 0-3.2-2.5-5.9-5.8-5.9 -3.2 0-5.9 2.5-5.9 5.8 0 3.2 2.5 5.9 5.8 5.9 1.3 0 2.5-0.4 3.5-1.1l0.1-0.1 3 3c0.2 0.2 0.4 0.2 0.6 0.2 0.2 0 0.4-0.1 0.6-0.2 0.2-0.1 0.2-0.4 0.2-0.6C115.8 45 115.7 44.8 115.6 44.6L115.6 44.6zM112 38.2c0 2.3-1.8 4.3-4.2 4.3 -2.3 0-4.3-1.8-4.3-4.2 0-2.3 1.8-4.3 4.2-4.3 0 0 0 0 0.1 0C110.1 34.1 112 35.9 112 38.2L112 38.2z"/></svg>
