<svg xmlns="http://www.w3.org/2000/svg" viewBox="0 0 52.5 52.5"><style type="text/css">  
	.st0{fill:none;stroke:#97735E;stroke-miterlimit:10;}
	.st1{fill:#97735E;}
</style><circle class="st0" cx="26.3" cy="26.3" r="25.8"/><path class="st1" d="M33.1 24.8c-1.9 1.3-3.3 2.3-4.3 3 -0.3 0.2-0.6 0.4-0.8 0.6 -0.3 0.2-0.5 0.3-0.8 0.4 -0.3 0.1-0.6 0.2-0.9 0.2h0c-0.3 0-0.7-0.1-0.9-0.2 -0.3-0.1-0.6-0.2-0.8-0.4 -0.2-0.1-0.5-0.3-0.8-0.6 -0.8-0.6-2.2-1.6-4.3-3 -0.3-0.2-0.6-0.5-0.9-0.8v6.8c0 0.4 0.1 0.7 0.4 1 0.3 0.3 0.6 0.4 1 0.4h12.7c0.4 0 0.7-0.1 1-0.4 0.3-0.3 0.4-0.6 0.4-1v-6.8C33.7 24.4 33.4 24.6 33.1 24.8L33.1 24.8zM33.6 20.6c-0.3-0.3-0.6-0.4-1-0.4H19.9c-0.4 0-0.8 0.1-1 0.5 -0.2 0.3-0.4 0.7-0.4 1.1 0 0.4 0.2 0.8 0.5 1.2 0.3 0.4 0.6 0.7 1 1 0.2 0.1 0.8 0.5 1.8 1.2s1.7 1.2 2.3 1.6c0.1 0 0.2 0.1 0.4 0.3s0.3 0.3 0.5 0.3c0.1 0.1 0.3 0.2 0.4 0.3 0.2 0.1 0.3 0.2 0.5 0.2 0.1 0.1 0.3 0.1 0.4 0.1h0c0.1 0 0.3 0 0.4-0.1 0.2-0.1 0.3-0.1 0.5-0.2 0.2-0.1 0.3-0.2 0.4-0.3s0.3-0.2 0.5-0.3 0.3-0.2 0.4-0.3c0.5-0.4 1.9-1.3 4-2.8 0.4-0.3 0.8-0.6 1.1-1.1 0.3-0.4 0.4-0.8 0.4-1.3C34 21.2 33.8 20.8 33.6 20.6z"/></svg>