<svg xmlns="http://www.w3.org/2000/svg" viewBox="0 0 80 32"><style type="text/css">  
	.st0{fill:#FFFFFF;}
</style><path class="st0" d="M6 3c0 0.8-0.3 1.6-0.9 2.2 -1.2 1.1-3 1.1-4.2 0 -1.2-1.2-1.2-3.1 0-4.3 1.2-1.1 3-1.1 4.2 0C5.7 1.3 6 2.1 6 3zM5.5 25.7h-5V8.1h5V25.7zM8.8 8.7C9.9 8.4 11 8.1 12.1 8c1.4-0.2 2.8-0.3 4.2-0.3 1.3 0 2.5 0.2 3.8 0.6 0.9 0.3 1.7 0.9 2.4 1.7 0.6 0.7 1 1.6 1.2 2.6 0.3 1.1 0.4 2.2 0.4 3.3v10h-5v-9.4c0.1-1.2-0.1-2.4-0.6-3.4 -0.6-0.7-1.5-1.1-2.4-1 -0.4 0-0.7 0-1.1 0.1 -0.4 0-0.8 0.1-1.1 0.1v13.6h-5L8.8 8.7 8.8 8.7zM27.2 8.7c1.1-0.3 2.2-0.5 3.3-0.7 1.4-0.2 2.8-0.3 4.2-0.3 1.3 0 2.5 0.2 3.8 0.6 0.9 0.3 1.7 0.9 2.4 1.7 0.6 0.7 1 1.6 1.2 2.6 0.3 1.1 0.4 2.2 0.4 3.3v10h-5v-9.4c0.1-1.2-0.1-2.4-0.6-3.4 -0.6-0.7-1.5-1.1-2.4-1 -0.4 0-0.7 0-1.1 0.1 -0.4 0-0.8 0.1-1.1 0.1v13.6h-5L27.2 8.7 27.2 8.7zM62.2 16.9c0 1.3-0.2 2.6-0.6 3.8 -0.4 1.1-1 2.1-1.8 3 -0.8 0.8-1.7 1.5-2.7 1.9 -2.3 0.9-4.8 0.9-7.1 0 -1-0.4-2-1.1-2.7-1.9 -0.8-0.9-1.4-1.9-1.8-3 -0.4-1.2-0.7-2.5-0.6-3.8 0-1.3 0.2-2.6 0.7-3.8 0.4-1.1 1-2.1 1.8-2.9C48 9.3 49 8.7 50 8.3c1.1-0.5 2.3-0.7 3.5-0.7 1.2 0 2.4 0.2 3.5 0.7 1 0.4 2 1.1 2.7 1.9 0.8 0.8 1.4 1.8 1.8 2.9C62 14.3 62.2 15.6 62.2 16.9L62.2 16.9zM57.1 16.9c0.1-1.3-0.3-2.6-0.9-3.6 -0.6-0.9-1.6-1.4-2.6-1.3 -1.1 0-2.1 0.5-2.7 1.3 -0.7 1.1-1 2.4-0.9 3.6 -0.1 1.3 0.3 2.6 0.9 3.7 0.6 0.9 1.6 1.4 2.7 1.4 1.1 0 2.1-0.5 2.6-1.4C56.8 19.4 57.1 18.2 57.1 16.9L57.1 16.9zM71.1 13l3.5-5h5.2l-6.1 8.6c1.3 1.5 2.6 3.1 3.8 4.8 1 1.4 1.8 2.8 2.6 4.3h-5.4c-0.2-0.3-0.4-0.8-0.7-1.3s-0.6-1-0.9-1.6c-0.3-0.5-0.7-1-1.1-1.4 -0.4-0.4-0.7-0.7-1.1-1 -0.3 0.3-0.7 0.6-1 1 -0.4 0.4-0.7 0.8-1 1.3 -0.3 0.5-0.6 1-0.9 1.6 -0.3 0.5-0.6 1-0.8 1.4H62c0.3-0.6 0.7-1.2 1.1-2s1-1.6 1.5-2.4c0.6-0.8 1.2-1.6 1.8-2.4 0.6-0.8 1.3-1.5 1.9-2.2 -1.1-1.6-2.2-3.1-3.2-4.5 -1-1.4-2-2.9-3-4.3h5.4L71.1 13zM46.7 28.2h13.7c0.5 0 1 0.4 1 1V31c0 0.5-0.4 1-1 1l0 0H46.7c-0.5 0-1-0.4-1-1 0 0 0 0 0 0v-1.9C45.7 28.6 46.1 28.2 46.7 28.2 46.7 28.2 46.7 28.2 46.7 28.2L46.7 28.2z"/></svg>
