<?xml version="1.0" encoding="utf-8"?>
<!-- Generator: Adobe Illustrator 22.0.1, SVG Export Plug-In . SVG Version: 6.00 Build 0)  -->
<svg version="1.1" id="Capa_1" xmlns="http://www.w3.org/2000/svg" xmlns:xlink="http://www.w3.org/1999/xlink" x="0px" y="0px"
	 viewBox="0 0 320 512" style="enable-background:new 0 0 320 512;" xml:space="preserve">
<style type="text/css">
	.st0{fill:#FFFFFF;}
</style>
<g>
	<path class="st0" d="M160,356.8c-26.8,0-48.5,21.7-48.5,48.5c0,7.5,1.7,14.6,4.8,21c0.2,0.4,43.7,85.7,43.7,85.7l43.2-84.7
		c3.4-6.6,5.3-14.1,5.3-22C208.5,378.5,186.8,356.8,160,356.8z M160,434.4c-16.1,0-29.1-13-29.1-29.1c0-16.1,13-29.1,29.1-29.1
		c16.1,0,29.1,13,29.1,29.1C189.1,421.4,176.1,434.4,160,434.4z"/>
</g>
</svg>
