<svg xmlns="http://www.w3.org/2000/svg" viewBox="0 0 52.5 52.5"><style type="text/css">  
	.st0{fill:none;stroke:#97735E;stroke-miterlimit:10;}
	.st1{fill:#97735E;}
</style><circle class="st0" cx="26.3" cy="26.3" r="25.8"/><path class="st1" d="M26.5 38.6c-0.9 0-1.6-0.7-1.6-1.5 0 0 0 0 0 0 0-0.9 0.7-1.6 1.6-1.6 0.4 0 0.8 0.2 1.1 0.5 0.3 0.3 0.5 0.7 0.5 1.1C28.1 37.8 27.4 38.5 26.5 38.6 26.5 38.6 26.5 38.6 26.5 38.6zM31.9 34.3c-0.1 0.1-0.3 0.2-0.4 0.2h-10c-0.2 0-0.3-0.1-0.4-0.2 -0.1-0.1-0.2-0.3-0.2-0.4V20.1c0-0.3 0.3-0.6 0.6-0.6h10c0.2 0 0.3 0.1 0.4 0.2 0.1 0.1 0.2 0.3 0.2 0.4v13.8C32.1 34 32.1 34.2 31.9 34.3L31.9 34.3zM28.1 17.6h-3.1c-0.2 0-0.3-0.1-0.3-0.3 0 0 0 0 0-0.1 0-0.2 0.1-0.3 0.2-0.3 0 0 0 0 0.1 0h3.1c0.2 0 0.3 0.1 0.3 0.2 0 0 0 0.1 0 0.1C28.4 17.5 28.3 17.6 28.1 17.6 28.1 17.6 28.1 17.6 28.1 17.6L28.1 17.6zM33.3 15.2c-0.5-0.5-1.1-0.7-1.8-0.7h-10c-1.4 0-2.5 1.1-2.5 2.5v20c0 1.4 1.1 2.5 2.5 2.5h10c1.4 0 2.5-1.1 2.5-2.5V17C34 16.3 33.7 15.7 33.3 15.2L33.3 15.2z"/></svg>