<svg xmlns="http://www.w3.org/2000/svg" viewBox="0 0 65.1 65.1"><style type="text/css">  
  .st0{fill:#97735E;}
  .st1{fill:#FFFFFF;}
</style><rect class="st0" width="65.1" height="65.1"/><path class="st1" d="M35.3 44.1v-2.3h-1.5v2.3l-5 4.1c-0.2 0.1-0.2 0.3-0.3 0.5 0 0.2 0 0.4 0.2 0.6 0.1 0.2 0.4 0.3 0.6 0.3 0.2 0 0.4-0.1 0.5-0.2l4-3.3v2.8c0 0.4 0.3 0.8 0.8 0.8s0.8-0.3 0.8-0.8V46l4.1 3.3c0.1 0.1 0.3 0.2 0.5 0.2 0.2 0 0.4-0.1 0.6-0.3 0.3-0.3 0.2-0.8-0.1-1.1 0 0 0 0 0 0L35.3 44.1zM49.3 19.5H26.2l0.2 0.4c0.2 0.3 0.3 0.6 0.4 0.9l0.1 0.2h19.9v15.4c0 1.1-0.9 2-2 2H27.3V32c0-1.2-0.6-2.3-1.6-2.9 -0.6-0.4-1.3-0.6-2-0.6h-5.1c-0.7 0-1.4 0.2-2 0.6 -0.4 0.2-0.7 0.5-0.9 0.9 -0.4 0.6-0.6 1.3-0.6 2v6.6c0 0.7 0.2 1.4 0.6 2 0.2 0.4 0.6 0.7 0.9 0.9 0.3 0.2 0.6 0.3 0.9 0.4l0.1 0v7.6h1.5v-9h-0.6c-0.3 0-0.6-0.1-0.9-0.2 -0.7-0.3-1.1-1-1.1-1.8V32c0-1.1 0.9-2 2.1-2 0 0 0 0 0 0h5.1c1.1 0 2 0.9 2.1 2 0 0 0 0 0 0v6.6c0 0.6-0.3 1.1-0.7 1.5 -0.1 0.1-0.3 0.2-0.5 0.3 -0.3 0.1-0.6 0.2-0.9 0.2h-0.6v9h1.5V42l0.1 0c0.3-0.1 0.7-0.3 0.9-0.4 0.4-0.3 0.7-0.6 0.9-0.9 0.1-0.2 0.3-0.4 0.4-0.7l0-0.1h17.7c1.9 0 3.5-1.6 3.5-3.5V21h0.9c0.4 0 0.8-0.3 0.8-0.8S49.7 19.5 49.3 19.5zM21.2 26.7c2.2 0 4-1.8 3.9-4 0-2.2-1.8-4-4-3.9 -2.2 0-3.9 1.8-3.9 4C17.1 24.9 18.9 26.7 21.2 26.7zM18.6 22.7c0-1.4 1.1-2.5 2.5-2.5 1.4 0 2.5 1.1 2.5 2.5 0 1.4-1.1 2.5-2.5 2.5 0 0 0 0 0 0C19.8 25.2 18.6 24.1 18.6 22.7L18.6 22.7z"/></svg>