<?xml version="1.0" encoding="utf-8"?>
<!-- Generator: Adobe Illustrator 22.0.1, SVG Export Plug-In . SVG Version: 6.00 Build 0)  -->
<svg version="1.1" id="Layer_1" xmlns="http://www.w3.org/2000/svg" xmlns:xlink="http://www.w3.org/1999/xlink" x="0px" y="0px"
	 viewBox="0 0 188.5 68" style="enable-background:new 0 0 188.5 68;" xml:space="preserve">
<style type="text/css">
	.st0{fill:none;stroke:#97735E;stroke-width:2;}
	.st1{fill:none;stroke:#97735E;}
	.st2{fill:none;stroke:#996666;}
	.st3{fill:#757371;}
</style>
<circle id="TIMING_BG" class="st0" cx="93.8" cy="34" r="33"/>
<rect id="LEFT_LINE" x="0.5" y="34" class="st1" width="45" height="1"/>
<rect id="RIGHT_LINE" x="143" y="34" class="st2" width="45" height="1"/>
<g>
	<path id="PRESENTATION_ICON_1_" class="st3" d="M95.7,44.9v-2.3h-1.5v2.3l-5,4.1c-0.3,0.3-0.4,0.7-0.1,1.1c0,0,0,0,0,0
		c0.1,0.2,0.4,0.3,0.6,0.3c0.2,0,0.4-0.1,0.5-0.2l4-3.3v2.8c0,0.4,0.4,0.8,0.8,0.7c0.4,0,0.7-0.3,0.7-0.7v-2.8l4.1,3.3
		c0.1,0.1,0.3,0.2,0.5,0.2c0.4,0,0.8-0.3,0.8-0.8c0-0.2-0.1-0.4-0.3-0.6L95.7,44.9z M109.7,20.3H86.7l0.2,0.4
		c0.2,0.3,0.3,0.6,0.4,0.9l0.1,0.2h19.9v15.4c0,1.1-0.9,2-2,2H87.7v-6.3c0-0.7-0.2-1.4-0.6-2c-0.2-0.4-0.6-0.7-0.9-0.9
		c-0.6-0.4-1.3-0.6-2-0.6h-5.1c-0.7,0-1.4,0.2-2,0.6c-0.4,0.2-0.7,0.6-0.9,0.9c-0.4,0.6-0.6,1.3-0.6,2v6.6c0,0.7,0.2,1.4,0.6,2
		c0.2,0.4,0.6,0.7,0.9,0.9c0.3,0.2,0.6,0.3,0.9,0.4l0.1,0v7.6h1.5v-9h-0.6c-0.3,0-0.6-0.1-0.9-0.2c-0.7-0.3-1.1-1-1.1-1.8v-6.6
		c0-1.1,0.9-2,2-2c0,0,0,0,0,0h5.1c1.1,0,2,0.9,2.1,2c0,0,0,0,0,0v6.6c0,0.6-0.3,1.1-0.7,1.5c-0.1,0.1-0.3,0.2-0.5,0.3
		c-0.3,0.1-0.6,0.2-0.9,0.2h-0.6v9h1.5v-7.6l0.1,0c0.3-0.1,0.7-0.3,1-0.4c0.4-0.2,0.7-0.6,0.9-0.9c0.1-0.2,0.3-0.4,0.4-0.7l0-0.1
		h17.7c1.9,0,3.5-1.6,3.5-3.5V21.8h1c0.2,0.3,1.2,0.1,1.5-0.1s0.4-0.7,0.2-1c-0.2-0.3-0.7-0.4-1-0.2
		C110.3,20.5,110.2,20.5,109.7,20.3L109.7,20.3z M81.6,27.5c2.2,0,4-1.8,3.9-4.1s-1.8-4-4.1-3.9c-2.2,0-3.9,1.8-3.9,4
		C77.6,25.7,79.4,27.5,81.6,27.5L81.6,27.5z M79.1,23.5c0-1.4,1.1-2.5,2.5-2.6c1.4,0,2.5,1.1,2.6,2.5c0,1.4-1.1,2.5-2.5,2.6
		c0,0,0,0,0,0C80.2,26,79.1,24.9,79.1,23.5L79.1,23.5z"/>
</g>
</svg>
