<svg xmlns="http://www.w3.org/2000/svg" viewBox="0 0 65.1 65.1"><style type="text/css">  
  .st0{fill:#97735E;}
  .st1{fill:#FFFFFF;}
</style><rect class="st0" width="65.1" height="65.1"/><path class="st1" d="M31.1 19.2l-0.2 0v-3.3h-1.7v3.3l-0.2 0c-8.2 0.6-14.5 7.7-13.9 16 0.6 8.2 7.7 14.5 16 13.9s14.5-7.7 13.9-16C44.5 25.7 38.5 19.7 31.1 19.2zM38.5 41c-0.3-0.3-0.9-0.3-1.2 0 -0.3 0.3-0.3 0.8 0 1.2 0 0 0 0 0 0l1.5 1.5 -0.1 0.1c-2.1 1.8-4.8 2.9-7.6 3.1l-0.2 0v-2.2c0-0.5-0.4-0.8-0.9-0.8 -0.5 0-0.8 0.4-0.8 0.8V47L29 47c-2.8-0.2-5.5-1.3-7.6-3.1l-0.2-0.1 1.6-1.6c0.3-0.3 0.3-0.8 0-1.2 0 0 0 0 0 0 -0.3-0.3-0.9-0.3-1.2 0l-1.6 1.6 -0.1-0.2c-1.8-2.1-3-4.7-3.2-7.5l0-0.2h2.3c0.5 0 0.8-0.4 0.9-0.8 0-0.5-0.4-0.8-0.8-0.9 0 0 0 0 0 0h-2.3l0-0.2c0.2-2.8 1.3-5.4 3.2-7.5l0.1-0.1 1.6 1.6c0.3 0.3 0.9 0.3 1.2 0 0.3-0.3 0.3-0.8 0-1.2 0 0 0 0 0 0l-1.6-1.6 0.2-0.1c5-4.2 12.3-4.1 17.2 0.1l0.2 0.1 -1.5 1.5c-0.3 0.3-0.3 0.8 0 1.2 0 0 0 0 0 0 0.3 0.3 0.9 0.3 1.2 0l1.5-1.5 0.1 0.1c1.8 2.1 2.9 4.7 3.1 7.4l0 0.2h-2.1c-0.5 0-0.8 0.4-0.9 0.8 0 0.5 0.4 0.8 0.8 0.9 0 0 0 0 0 0h2.2l0 0.2c-0.2 2.7-1.3 5.3-3.1 7.4L40 42.5 38.5 41zM26.3 14.9c0-0.8 0.7-1.5 1.5-1.5h4.6c0.8 0 1.5 0.7 1.5 1.5V17h1.7v-2.1c0-1.8-1.5-3.2-3.2-3.2h-4.6c-1.8 0-3.2 1.4-3.2 3.2V17h1.7V14.9zM43.1 22.4l0.2 0.2 1.3-1.1 -0.2-0.2c-1-1.1-2.2-2.1-3.5-3l-0.3-0.2 -0.9 1.4 0.2 0.2C41.2 20.5 42.2 21.4 43.1 22.4L43.1 22.4zM31 30.5l-0.1 0v-6.3c0-0.5-0.4-0.9-0.9-0.8 -0.5 0-0.8 0.4-0.8 0.8v6.3l-0.1 0c-1.9 0.5-3 2.4-2.5 4.3 0.3 1.2 1.3 2.2 2.5 2.5l0.1 0v1.7c0 0.5 0.4 0.9 0.9 0.8 0.5 0 0.8-0.4 0.8-0.8v-1.7l0.1 0c1.9-0.5 3-2.4 2.5-4.3C33.2 31.8 32.2 30.9 31 30.5L31 30.5zM31.9 34c0 0.6-0.3 1.1-0.8 1.5 -0.7 0.5-1.6 0.5-2.3 0 -0.5-0.3-0.8-0.9-0.8-1.5 0-0.6 0.3-1.1 0.8-1.5 0.3-0.2 0.7-0.4 1.1-0.4 0.4 0 0.8 0.1 1.1 0.4C31.6 32.8 31.9 33.4 31.9 34L31.9 34z"/></svg>
