<svg xmlns="http://www.w3.org/2000/svg" viewBox="0 0 188.5 68"><style type="text/css">  
	.st0{fill:none;stroke:#97735E;stroke-width:2;}
	.st1{fill:none;stroke:#97735E;}
	.st2{fill:none;stroke:#996666;}
	.st3{fill:#757371;}
</style><circle class="st0" cx="93.8" cy="34" r="33"/><rect x="0.5" y="34" class="st1" width="45" height="1"/><rect x="143" y="34" class="st2" width="45" height="1"/><path class="st3" d="M95.2 20.2l-0.2 0v-3.3h-1.7v3.3l-0.2 0c-8.2 0.6-14.5 7.7-13.9 16 0.6 8.2 7.7 14.5 16 13.9 8.2-0.6 14.5-7.7 13.9-16C108.6 26.6 102.7 20.7 95.2 20.2zM102.7 42c-0.3-0.3-0.9-0.3-1.2 0 -0.3 0.3-0.3 0.8 0 1.2 0 0 0 0 0 0l1.5 1.5 -0.1 0.1c-2.1 1.8-4.8 2.9-7.5 3.1l-0.2 0v-2.2c0-0.5-0.4-0.8-0.9-0.8 -0.4 0-0.8 0.4-0.8 0.8v2.2l-0.2 0c-2.8-0.2-5.5-1.3-7.6-3.1l-0.1-0.1 1.6-1.6c0.2-0.2 0.3-0.4 0.3-0.6 0-0.2-0.1-0.4-0.3-0.6 -0.3-0.3-0.9-0.3-1.2 0l-1.6 1.6 -0.1-0.1c-1.8-2.1-3-4.7-3.2-7.5l0-0.2h2.3c0.5 0 0.8-0.4 0.9-0.8 0-0.5-0.4-0.8-0.8-0.9 0 0 0 0 0 0h-2.3l0-0.2c0.2-2.8 1.3-5.4 3.2-7.5l0.1-0.1 1.6 1.6c0.3 0.3 0.9 0.3 1.2 0 0.3-0.3 0.3-0.8 0-1.2 0 0 0 0 0 0L85.5 25l0.1-0.1c5-4.2 12.3-4.1 17.2 0.1l0.1 0.1 -1.5 1.5c-0.3 0.3-0.3 0.8 0 1.2 0 0 0 0 0 0 0.3 0.3 0.9 0.3 1.2 0l1.5-1.5 0.1 0.1c1.8 2.1 2.9 4.7 3.1 7.4l0 0.2h-2.1c-0.5 0-0.8 0.4-0.9 0.8 0 0.5 0.4 0.8 0.8 0.9 0 0 0 0 0 0h2.1l0 0.2c-0.2 2.7-1.3 5.3-3.1 7.4l-0.1 0.1L102.7 42zM90.4 15.8c0-0.8 0.7-1.5 1.5-1.5h4.6c0.8 0 1.5 0.7 1.5 1.5v2.1h1.7v-2.1c0-1.8-1.5-3.2-3.2-3.2h-4.6c-1.8 0-3.2 1.4-3.2 3.2v2.1h1.7L90.4 15.8 90.4 15.8zM107.3 23.4l0.2 0.2 1.3-1.1 -0.2-0.2c-1-1.1-2.2-2.1-3.5-3l-0.3-0.2 -0.9 1.4 0.2 0.2C105.4 21.4 106.4 22.3 107.3 23.4L107.3 23.4zM95.2 31.5l-0.1 0v-6.3c0-0.5-0.4-0.8-0.9-0.8 -0.4 0-0.8 0.4-0.8 0.8v6.3l-0.1 0c-1.9 0.5-3 2.4-2.5 4.3 0.3 1.2 1.3 2.2 2.5 2.5l0.1 0V40c0 0.5 0.4 0.8 0.9 0.8 0.4 0 0.8-0.4 0.8-0.8v-1.7l0.1 0c1.9-0.4 3.1-2.3 2.7-4.2C97.6 32.8 96.5 31.7 95.2 31.5L95.2 31.5zM96.1 34.9c0 0.6-0.3 1.1-0.8 1.5 -0.7 0.5-1.6 0.5-2.3 0 -0.8-0.6-1-1.7-0.4-2.6 0.1-0.2 0.3-0.3 0.4-0.4 0.7-0.5 1.6-0.5 2.3 0C95.8 33.7 96.1 34.3 96.1 34.9L96.1 34.9z"/></svg>